<?xml version="1.0" standalone="no"?>
<!DOCTYPE svg PUBLIC "-//W3C//DTD SVG 20010904//EN"
 "http://www.w3.org/TR/2001/REC-SVG-20010904/DTD/svg10.dtd">
<svg version="1.0" xmlns="http://www.w3.org/2000/svg"
 width="3500.000000pt" height="3500.000000pt" viewBox="0 0 3500.000000 3500.000000"
 preserveAspectRatio="xMidYMid meet">

<g transform="translate(0.000000,3500.000000) scale(0.100000,-0.100000)"
fill="#000000" stroke="none">
<path d="M19115 29053 c-2007 -58 -3500 -804 -4233 -2114 l-69 -124 -93 -12
c-447 -60 -836 -322 -1125 -757 -291 -440 -458 -997 -532 -1776 -22 -233 -25
-1105 -5 -1375 53 -710 144 -1391 282 -2116 22 -114 40 -214 40 -222 0 -8 -21
-22 -47 -32 -300 -113 -536 -337 -636 -606 -116 -309 -68 -732 128 -1137 232
-478 637 -859 1174 -1103 l126 -57 44 -78 c317 -568 605 -969 1008 -1407 421
-456 938 -858 1481 -1150 118 -64 375 -187 420 -201 12 -4 22 -10 22 -14 0 -4
-161 -87 -357 -185 l-358 -178 -3405 3 -3405 3 -6 275 c-6 291 -12 340 -65
505 -153 479 -569 848 -1077 957 -147 31 -409 31 -554 0 -120 -26 -252 -71
-345 -118 l-66 -33 -84 39 c-303 141 -643 175 -957 95 -539 -138 -942 -570
-1062 -1140 -21 -95 -22 -135 -26 -777 l-5 -677 -311 -3 -312 -3 -63 -29 c-79
-37 -163 -124 -186 -193 -22 -65 -20 -49 -81 -843 -70 -898 -257 -3315 -335
-4310 -33 -421 -60 -773 -60 -783 0 -16 -23 -17 -302 -17 -752 -1 -1391 -36
-1860 -103 -143 -21 -153 -23 -156 -44 -2 -17 2 -23 15 -23 10 -1 59 -7 108
-15 274 -44 491 -66 875 -90 345 -20 781 -24 3290 -30 1268 -3 2676 -8 3130
-11 454 -3 3908 -7 7675 -9 3768 -2 7019 -7 7225 -10 206 -3 691 -6 1077 -6
578 0 708 3 736 14 28 12 448 15 2678 21 2529 7 3277 14 3729 36 296 15 717
47 850 65 63 9 158 22 210 28 84 11 95 14 95 32 0 18 -11 21 -105 32 -448 53
-1242 103 -1621 103 -60 0 -109 2 -109 4 0 2 15 29 34 61 43 70 89 197 111
301 26 127 37 346 33 699 -3 362 -3 362 -65 402 -25 16 -71 18 -513 23 l-485
5 -5 1155 -5 1155 -26 72 c-63 173 -178 302 -341 384 -123 62 -77 60 -1209 66
-791 4 -1050 2 -1095 -7 -187 -39 -327 -187 -354 -375 -5 -38 -10 -222 -10
-407 l0 -338 -1145 0 -1145 0 2 183 3 182 525 5 c518 5 526 5 581 28 160 64
271 177 331 338 22 58 23 69 26 589 2 368 -1 551 -9 598 -32 193 -188 361
-388 421 -49 14 -190 16 -1375 16 -727 0 -1326 4 -1331 8 -6 4 -37 45 -69 92
-159 229 -380 438 -625 590 -43 27 -505 262 -1027 524 -887 444 -1118 568
-1097 585 4 4 62 29 128 56 518 208 1000 498 1455 875 167 139 518 491 666
670 263 316 479 638 681 1014 l70 130 164 66 c666 267 1111 667 1270 1142 194
578 3 1184 -452 1431 -65 36 -184 77 -223 77 -52 1 -52 10 12 172 356 898 572
1806 648 2718 21 248 24 812 6 1035 -78 958 -333 1736 -797 2435 -174 261
-337 460 -570 695 -682 689 -1594 1201 -2780 1561 -189 57 -621 168 -790 203
-240 49 -779 77 -1220 64z m661 -343 c298 -18 437 -36 649 -86 1689 -395 2931
-1118 3672 -2139 119 -164 125 -179 33 -80 -730 791 -1690 1365 -2910 1739
-366 112 -755 200 -974 221 -505 47 -1127 38 -1673 -27 l-183 -21 -110 -88
c-528 -424 -1374 -771 -2059 -845 -61 -7 -68 -10 -155 -83 -131 -109 -356
-337 -473 -477 -178 -215 -331 -443 -453 -677 -51 -98 -77 -136 -93 -141 -12
-3 -54 -6 -93 -6 -136 0 -328 -52 -485 -130 -107 -54 -244 -155 -351 -258
-172 -166 -305 -357 -420 -602 -33 -69 -68 -144 -79 -166 -51 -108 -139 -416
-183 -639 -45 -231 -46 -232 -40 -95 3 69 9 154 15 190 5 36 9 74 9 85 0 11 9
87 20 168 37 265 104 560 175 767 59 173 206 469 289 585 257 357 584 554 946
572 166 8 180 17 261 175 165 325 333 561 578 812 296 301 575 502 976 701
234 116 372 172 612 251 480 156 1048 259 1628 293 208 12 668 12 871 1z
m-6389 -4777 c-3 -10 -5 -4 -5 12 0 17 2 24 5 18 2 -7 2 -21 0 -30z m3356
-1712 c748 -280 1540 -461 2347 -535 354 -33 519 -40 930 -40 511 0 824 19
1305 79 467 59 1027 171 1419 285 38 11 71 18 73 16 2 -1 12 -83 24 -181 123
-1087 527 -1796 1141 -2006 l111 -38 -2 -68 c-1 -37 -6 -117 -11 -178 -78
-896 -363 -1735 -848 -2492 -772 -1207 -2008 -2036 -3372 -2262 -417 -69 -935
-85 -1347 -41 -969 104 -1847 493 -2624 1161 -104 89 -324 303 -464 450 -270
284 -586 702 -802 1064 -66 110 -203 359 -203 369 0 4 -20 41 -44 84 -146 259
-269 622 -355 1052 -54 267 -112 714 -95 729 5 4 41 20 79 36 775 315 1429
1016 1815 1945 29 69 55 128 59 133 4 4 25 -19 48 -50 62 -88 222 -271 299
-342 146 -134 323 -259 400 -280 52 -14 114 3 154 42 65 64 67 127 9 253 -85
183 -156 445 -178 659 -17 163 -19 205 -9 205 5 0 69 -22 141 -49z m-3230
-2273 c53 -211 68 -290 77 -398 34 -410 130 -902 246 -1260 29 -90 52 -166 50
-167 -4 -5 -177 115 -248 173 -288 232 -488 518 -598 852 -141 430 -68 763
208 954 45 32 181 107 193 108 3 0 35 -118 72 -262z m11119 -132 c220 -90 372
-347 385 -651 21 -478 -247 -871 -805 -1179 -57 -32 -118 -64 -137 -72 l-33
-14 24 63 c14 34 51 144 84 244 148 452 255 1013 275 1439 3 71 8 144 11 162
l5 32 67 0 c47 0 84 -7 124 -24z m-17739 -3957 c87 -54 197 -136 197 -147 0
-4 -18 -27 -40 -52 -22 -25 -61 -77 -86 -115 l-47 -71 -126 4 c-154 5 -228
-10 -357 -73 -169 -82 -308 -243 -372 -430 l-27 -80 -5 -1180 -5 -1180 -28
-47 c-35 -60 -100 -100 -173 -106 -72 -6 -146 30 -189 90 l-30 43 -3 1165 c-2
1266 -3 1241 53 1415 58 178 156 335 295 476 189 191 429 310 680 337 128 14
174 5 263 -49z m1459 37 c179 -34 246 -70 389 -203 192 -181 321 -414 384
-693 13 -57 18 -143 22 -352 l5 -276 -38 -18 c-61 -28 -125 -73 -181 -127
l-52 -50 -4 349 c-4 387 -6 404 -75 543 -80 165 -215 293 -381 362 -98 41
-173 52 -313 47 -106 -4 -134 -9 -207 -36 -46 -17 -116 -52 -156 -77 -40 -25
-78 -45 -84 -45 -6 0 -43 -16 -81 -35 -134 -68 -252 -205 -303 -355 l-22 -65
-5 -1180 -5 -1180 -24 -52 c-32 -71 -41 -78 -88 -63 -59 19 -103 58 -129 114
l-24 51 0 1125 c0 1236 0 1232 60 1413 137 410 468 712 881 802 86 18 336 19
431 1z m-1557 -693 c-26 -64 -65 -257 -74 -366 -6 -74 -11 -375 -11 -713 l0
-584 -205 0 -205 0 0 644 c0 604 1 648 19 705 60 193 236 322 450 330 28 1 32
-2 26 -16z m1502 -13 c146 -51 267 -187 302 -341 7 -27 11 -286 11 -676 l0
-633 -210 0 -210 0 0 673 c0 713 -2 754 -50 924 -11 40 -20 75 -20 79 0 11
123 -7 177 -26z m9333 -603 c105 -30 220 -59 326 -82 16 -4 30 -26 54 -87 68
-173 170 -348 278 -480 82 -101 229 -238 318 -298 41 -28 74 -53 74 -55 0 -3
-20 -38 -44 -78 -23 -39 -109 -184 -190 -321 -82 -136 -151 -244 -156 -240 -4
5 -137 243 -295 529 -158 286 -308 556 -333 600 -86 150 -262 469 -262 473 0
10 86 81 95 78 6 -2 66 -19 135 -39z m2942 -131 c26 -17 48 -34 48 -38 0 -4
-165 -337 -366 -739 -320 -638 -367 -729 -378 -712 -38 56 -386 662 -386 671
0 7 4 12 9 12 5 0 60 48 121 107 177 169 305 353 431 618 l58 123 208 -6 208
-5 47 -31z m-1975 -48 c247 -23 923 -12 1062 18 23 5 22 3 -14 -63 -158 -285
-485 -577 -614 -547 -42 10 -179 84 -245 132 -140 103 -272 254 -361 416 l-38
69 40 -6 c23 -4 99 -12 170 -19z m-1365 -356 c76 -37 120 -82 157 -162 l26
-55 0 -2365 0 -2365 -24 -53 c-15 -32 -45 -72 -80 -105 -104 -95 47 -87 -1638
-87 l-1483 0 0 1053 c0 994 -1 1056 -19 1119 -37 137 -132 248 -266 314 -38
19 -94 39 -124 44 -76 14 -1015 13 -1083 -1 -147 -31 -281 -136 -348 -273 -27
-54 -43 -105 -50 -151 -6 -42 -10 -479 -10 -1088 l0 -1017 -1497 2 -1498 3
-50 27 c-62 32 -128 102 -158 166 l-22 47 0 2365 0 2365 26 56 c44 94 130 165
226 188 22 5 1689 8 3943 8 l3905 -2 67 -33z m3603 -425 c374 -195 745 -400
930 -515 28 -17 73 -44 102 -61 79 -47 297 -195 402 -275 52 -39 99 -74 105
-78 6 -4 -3 -29 -22 -66 -61 -115 -62 -122 -62 -717 0 -578 1 -585 52 -697 56
-120 181 -230 318 -280 63 -22 77 -23 420 -26 l356 -3 26 -72 c32 -85 90 -279
85 -283 -2 -2 -398 -4 -880 -4 -590 -1 -883 3 -896 10 -13 7 -315 10 -920 10
l-901 0 -38 -34 -37 -34 -3 -899 c-2 -840 -1 -900 15 -933 37 -73 2 -70 814
-70 l726 0 31 -63 c78 -158 230 -261 415 -283 l57 -6 0 -77 0 -76 -79 -17
c-199 -41 -353 -174 -418 -360 -17 -48 -26 -102 -30 -174 l-6 -104 -376 0
c-207 0 -697 3 -1088 7 l-713 6 0 2961 c0 1734 4 2956 9 2950 5 -5 58 -94 118
-199 253 -440 397 -682 422 -709 67 -73 198 -73 262 0 9 11 155 294 324 629
312 620 315 625 318 625 1 0 74 -37 162 -83z m-15505 -725 c0 -298 3 -379 15
-427 66 -251 314 -407 567 -354 136 28 266 127 327 248 55 109 61 157 61 549
l0 352 205 0 205 0 0 -342 c0 -189 5 -372 10 -408 45 -279 324 -465 595 -395
169 44 297 171 349 344 13 46 16 114 16 428 l0 373 530 0 530 0 2 -2112 3
-2113 22 -65 c66 -192 212 -341 402 -410 66 -24 77 -32 83 -56 9 -36 83 -1122
77 -1128 -3 -3 -5078 -24 -5086 -21 -2 1 218 2848 400 5177 52 664 54 678 77
703 l23 25 294 0 293 0 0 -368z m13570 -2556 l0 -2895 -912 6 c-502 3 -1275 8
-1717 12 l-803 6 -19 50 c-19 49 -19 53 1 265 26 284 50 611 50 682 l0 58 863
2 862 3 75 29 75 29 330 6 c350 6 355 7 394 57 21 27 21 31 21 926 0 987 3
941 -60 973 -22 11 -63 15 -168 15 l-139 0 -5 258 c-3 141 -3 726 0 1300 5
1166 -3 1063 74 922 144 -265 324 -580 346 -602 53 -57 162 -64 226 -14 32 24
160 230 456 734 23 39 44 72 46 72 2 0 4 -1302 4 -2894z m7436 2250 c62 -29
110 -84 129 -150 21 -71 22 -989 1 -1059 -19 -64 -67 -121 -128 -151 l-52 -26
-1750 0 c-1437 1 -1758 3 -1789 14 -57 21 -100 58 -132 117 l-30 54 0 520 0
520 25 49 c28 54 66 91 125 117 38 18 118 19 1795 19 l1755 0 51 -24z m2106
-1238 c80 -37 152 -108 191 -187 l32 -66 3 -277 3 -278 -396 0 -396 0 3 363
c3 413 3 411 88 455 43 22 53 23 230 20 175 -3 188 -5 242 -30z m1680 -5 c120
-56 199 -163 219 -294 6 -40 8 -471 7 -1134 l-3 -1070 -257 -5 c-282 -5 -281
-5 -332 -74 -20 -26 -21 -43 -27 -489 -5 -434 -7 -467 -27 -542 -45 -164 -126
-288 -226 -345 -70 -41 -167 -42 -244 -4 -119 59 -206 209 -249 431 -16 80
-18 234 -23 1713 -5 1621 -5 1625 -26 1680 -12 31 -33 79 -48 107 -14 29 -26
55 -26 58 0 3 269 4 598 3 l597 -3 67 -32z m-16357 -300 c30 -17 72 -65 84
-96 8 -20 11 -484 11 -1498 l0 -1469 -620 0 -620 0 0 1470 c0 1604 -4 1495 54
1558 42 47 39 47 531 52 468 5 522 3 560 -17z m11245 -323 l0 -180 -435 0
-435 0 0 180 0 180 435 0 435 0 0 -180z m-7145 -420 c3 -5 3 -109 -1 -230 l-7
-220 -50 -15 c-28 -8 -52 -15 -54 -15 -2 0 -3 110 -3 245 l0 245 54 0 c30 0
58 -4 61 -10z m3615 5 c0 -3 -9 -22 -19 -43 -41 -81 -54 -144 -60 -306 l-6
-160 -260 -78 c-143 -42 -268 -78 -277 -78 -9 0 -147 38 -305 86 -158 47 -318
94 -355 105 l-68 20 0 229 0 230 675 0 c371 0 675 -2 675 -5z m7190 -910 l0
-855 -3407 2 -3408 3 -42 22 c-47 25 -84 71 -102 122 -8 24 -11 231 -11 711
l0 676 25 51 c28 55 83 100 137 113 18 4 1557 8 3421 9 l3387 1 0 -855z
m-10810 -180 l0 -365 -95 0 c-52 0 -95 2 -95 4 0 2 11 28 24 59 44 99 56 187
56 420 l0 213 48 16 c26 9 50 17 55 17 4 1 7 -163 7 -364z m2411 326 c212 -68
566 -171 584 -171 10 0 131 34 270 75 139 41 258 75 264 75 8 0 11 -97 11
-335 l0 -335 -635 0 -635 0 0 365 c0 201 4 365 9 365 5 0 64 -18 132 -39z
m11137 -1266 c2 -148 -2 -318 -8 -376 -21 -208 -76 -346 -180 -451 -102 -103
-66 -98 -767 -98 l-593 0 35 63 c44 80 81 185 107 302 18 78 21 137 25 457 l5
368 257 3 c141 1 450 2 686 2 l430 0 3 -270z m-21338 243 c1 -2 9 -102 19
-223 18 -208 18 -221 2 -240 -46 -53 -392 -437 -438 -485 -50 -52 -52 -53 -57
-30 -5 28 -66 897 -66 948 l0 32 270 0 c149 0 270 -1 270 -2z m791 -490 c19
-271 34 -495 32 -498 -2 -2 -129 122 -282 275 l-278 280 -12 165 c-7 91 -15
189 -18 218 l-6 52 265 0 264 0 35 -492z m1429 315 c0 -174 -1 -180 -31 -270
l-32 -91 -316 -5 c-255 -3 -328 -7 -376 -21 -133 -37 -236 -95 -326 -183 l-56
-55 -7 64 c-3 34 -15 196 -26 358 -11 162 -22 314 -25 338 l-5 42 600 0 600 0
0 -177z m2786 125 c-6 -48 -25 -253 -42 -450 -3 -43 -9 -78 -13 -78 -3 0 -31
8 -61 17 -45 13 -118 17 -412 20 l-358 5 0 269 0 269 446 0 446 0 -6 -52z
m-4596 -853 l245 -245 -468 0 c-451 0 -468 1 -455 18 24 34 420 472 427 472 3
0 116 -110 251 -245z m18220 103 c18 -94 55 -204 95 -282 19 -38 33 -71 31
-73 -1 -2 -1553 1 -3447 7 -1894 5 -3497 10 -3561 10 l-118 0 0 103 c0 77 5
112 19 142 28 61 70 105 126 131 l50 24 3396 0 3396 0 13 -62z m-13837 -83
c32 -8 76 -24 99 -36 47 -24 131 -106 153 -150 l16 -29 -1891 0 c-1039 0
-1890 3 -1890 6 0 10 41 67 74 103 42 45 100 81 166 102 52 17 153 18 1635 18
1372 1 1588 -1 1638 -14z"/>
<path d="M16763 20155 c-231 -36 -458 -159 -616 -336 -31 -35 -67 -83 -78
-106 -18 -37 -19 -46 -7 -70 27 -56 48 -57 213 -8 327 97 530 127 718 106 236
-26 423 -118 728 -357 96 -76 126 -94 153 -94 33 0 57 18 69 53 8 22 -41 159
-89 246 -50 91 -127 193 -213 278 -233 233 -555 338 -878 288z"/>
<path d="M21060 19964 c-235 -45 -427 -144 -593 -307 -126 -124 -237 -291
-237 -356 0 -38 44 -75 80 -67 14 3 77 35 140 71 220 127 388 197 550 230 66
14 114 16 220 12 205 -8 358 -53 686 -203 164 -76 178 -79 217 -46 74 64 -117
345 -334 493 -84 57 -228 123 -324 149 -61 17 -116 23 -230 25 -82 2 -161 1
-175 -1z"/>
<path d="M17973 18166 c-157 -51 -271 -193 -281 -349 -3 -55 2 -97 22 -180
148 -615 632 -1028 1275 -1088 272 -26 551 29 804 158 370 189 619 513 723
938 27 114 29 159 10 230 -33 125 -99 206 -214 262 -71 36 -82 38 -166 38 -50
0 -170 -8 -266 -18 -478 -47 -1009 -48 -1495 -1 -245 23 -363 26 -412 10z"/>
<path d="M13177 13189 c-32 -5 -79 -18 -104 -29 -278 -123 -351 -472 -145
-692 224 -239 619 -152 723 159 32 96 25 223 -17 313 -84 177 -263 275 -457
249z"/>
<path d="M14923 11013 c-12 -2 -34 -18 -48 -34 l-25 -31 0 -438 0 -439 23 -26
c44 -51 153 -32 177 31 14 35 13 842 0 880 -6 16 -18 34 -28 40 -23 15 -71 23
-99 17z"/>
<path d="M15424 11006 c-66 -29 -64 -15 -64 -494 0 -482 -1 -472 67 -491 49
-14 89 -3 118 31 l25 30 0 428 c0 260 -4 439 -10 455 -6 15 -24 32 -45 40 -42
18 -51 18 -91 1z"/>
<path d="M15932 11005 c-18 -8 -35 -21 -38 -30 -3 -8 -10 -13 -14 -10 -5 3 -9
-194 -10 -439 l-1 -444 25 -30 c50 -58 148 -46 181 23 14 30 15 84 12 447 -2
227 -6 422 -8 433 -13 47 -92 75 -147 50z"/>
<path d="M16443 11004 c-62 -31 -63 -38 -63 -497 0 -413 0 -414 23 -448 42
-63 147 -57 182 10 14 28 15 82 13 461 l-3 430 -25 24 c-33 32 -86 41 -127 20z"/>
<path d="M9879 10981 l-29 -29 0 -436 0 -436 28 -30 c48 -54 148 -38 173 27 6
16 9 190 7 455 l-3 430 -28 24 c-42 36 -109 34 -148 -5z"/>
<path d="M10404 10992 c-43 -34 -44 -43 -44 -486 l0 -426 28 -30 c22 -25 35
-31 69 -32 46 0 86 20 103 52 7 13 10 161 8 456 l-3 436 -28 24 c-34 29 -101
33 -133 6z"/>
<path d="M10908 10981 l-33 -29 -3 -426 c-2 -368 -1 -430 13 -456 19 -37 45
-51 97 -52 32 0 46 6 69 29 l29 29 0 432 c0 314 -3 439 -11 455 -19 35 -41 46
-86 47 -33 0 -50 -6 -75 -29z"/>
<path d="M11420 10982 c-19 -19 -30 -44 -35 -73 -3 -24 -5 -220 -3 -436 3
-379 4 -392 24 -420 41 -55 138 -49 175 11 18 29 19 54 19 442 0 267 -4 422
-11 442 -23 66 -117 85 -169 34z"/>
<path d="M19474 12121 c-114 -52 -127 -219 -24 -287 102 -68 229 -21 260 96
27 102 -57 210 -162 210 -18 0 -51 -9 -74 -19z"/>
<path d="M19497 10257 c-77 -24 -124 -99 -114 -184 9 -80 66 -134 150 -141
120 -10 208 92 178 206 -26 96 -119 148 -214 119z"/>
<path d="M19460 8208 c-58 -40 -75 -72 -75 -143 0 -49 5 -70 21 -92 36 -49 82
-73 136 -73 66 0 114 24 146 73 54 81 23 200 -61 240 -51 25 -127 22 -167 -5z"/>
<path d="M22882 12368 c-9 -9 -12 -128 -12 -473 0 -345 3 -464 12 -473 9 -9
389 -12 1649 -12 l1638 0 15 22 c14 20 16 81 16 469 0 419 -1 447 -18 462 -17
16 -146 17 -1653 17 -1258 0 -1638 -3 -1647 -12z m613 -568 l0 -45 -195 0
-195 0 -3 33 c-6 64 -12 63 200 60 l193 -3 0 -45z m600 0 l0 -45 -195 0 -195
0 -3 33 c-6 64 -12 63 200 60 l193 -3 0 -45z m600 0 l0 -45 -195 0 -195 0 -3
33 c-6 64 -12 63 200 60 l193 -3 0 -45z m600 0 l0 -45 -195 0 -195 0 -3 33
c-6 64 -12 63 200 60 l193 -3 0 -45z"/>
<path d="M29234 10888 c-46 -22 -57 -92 -21 -133 l22 -26 395 0 395 1 23 26
c31 36 30 88 -4 119 l-27 25 -381 -1 c-241 0 -389 -4 -402 -11z"/>
<path d="M29215 10445 c-17 -16 -25 -35 -25 -60 0 -25 8 -44 25 -60 l24 -25
249 0 c247 0 249 0 270 23 31 33 30 90 -3 122 l-24 25 -246 0 -246 0 -24 -25z"/>
<path d="M29219 10041 c-36 -37 -38 -79 -5 -118 l24 -28 219 -3 c120 -2 233 0
251 3 45 8 72 38 72 79 0 91 -16 96 -300 96 l-232 0 -29 -29z"/>
<path d="M29250 9637 c-61 -16 -81 -97 -35 -142 l24 -25 391 0 391 0 24 25
c31 30 33 82 4 118 l-20 27 -375 2 c-206 2 -387 0 -404 -5z"/>
<path d="M13144 10716 c-94 -41 -161 -153 -151 -252 9 -91 71 -176 153 -210
48 -20 151 -17 199 5 91 41 140 121 140 226 0 105 -49 185 -140 226 -48 22
-155 25 -201 5z"/>
<path d="M20800 10089 c-86 -32 -93 -181 -10 -224 91 -47 191 12 190 112 -1
93 -88 146 -180 112z"/>
<path d="M22300 9863 c-61 -31 -60 -30 -58 -450 l3 -381 24 -26 c31 -33 96
-36 132 -7 l24 19 5 381 c3 210 2 394 -2 409 -16 59 -72 83 -128 55z"/>
<path d="M22762 9865 c-61 -27 -63 -41 -60 -460 l3 -373 24 -26 c34 -36 101
-37 136 -1 l25 24 0 395 0 395 -22 25 c-29 32 -65 39 -106 21z"/>
<path d="M23223 9865 c-17 -7 -36 -22 -42 -34 -7 -13 -11 -150 -11 -410 l0
-390 23 -26 c41 -48 134 -29 157 31 14 36 13 743 -1 782 -6 19 -23 36 -44 46
-39 19 -41 19 -82 1z"/>
<path d="M23690 9869 c-60 -24 -60 -17 -60 -447 l0 -393 25 -24 c18 -19 35
-25 69 -25 37 0 48 5 70 31 l26 31 0 372 c0 253 -4 384 -11 406 -8 22 -22 37
-45 46 -38 16 -40 16 -74 3z"/>
</g>
</svg>
